<svg xmlns="http://www.w3.org/2000/svg" xmlns:xlink="http://www.w3.org/1999/xlink" width="500" zoomAndPan="magnify" viewBox="0 0 375 374.999991" height="500" preserveAspectRatio="xMidYMid meet" version="1.0"><defs><clipPath id="a0cf78b638"><path d="M 20.113281 22 L 354.613281 22 L 354.613281 375 L 20.113281 375 Z M 20.113281 22 " clip-rule="nonzero"/></clipPath></defs><path stroke-linecap="round" transform="matrix(0.817848, 0, 0, 0.818507, 20.113639, 0.0618028)" fill-opacity="1" fill="#f37b20" fill-rule="evenodd" stroke-linejoin="round" d="M 290.166453 10.104037 C 290.166453 10.104037 242.986631 35.817766 250.80058 59.488904 C 258.614529 83.160042 292.143822 67.936064 285.428411 62.218721 C 264.966945 44.794663 290.166453 10.104037 290.166453 10.104037 Z M 290.166453 10.104037 " stroke="#f37b20" stroke-width="5" stroke-opacity="1" stroke-miterlimit="1.5"/><path stroke-linecap="round" transform="matrix(0.817848, 0, 0, 0.818507, 20.113639, 0.0618028)" fill-opacity="1" fill="#f37b20" fill-rule="evenodd" stroke-linejoin="round" d="M 252.816159 2.501593 C 252.816159 2.501593 219.191341 54.296525 246.062538 65.292151 C 272.933734 76.292549 295.993481 43.319989 287.219505 42.418004 C 248.3026 38.418727 252.816159 2.501593 252.816159 2.501593 Z M 252.816159 2.501593 " stroke="#f37b20" stroke-width="5" stroke-opacity="1" stroke-miterlimit="1.5"/><path fill="#f37b20" d="M 42.714844 139.46875 C 42.671875 140.382812 43.167969 145.875 55.480469 170.691406 C 67.167969 194.238281 87.4375 197.410156 127.582031 194.492188 C 160.71875 192.085938 184.410156 174.257812 181.4375 160.398438 C 178.585938 147.097656 158.5625 132.007812 163.792969 87.859375 C 168.546875 47.753906 209.753906 16.035156 261.097656 27 C 307.007812 36.804688 302.800781 102.847656 309.460938 103.898438 C 313.863281 104.59375 343.597656 112.632812 350.890625 119.824219 C 354.628906 123.507812 348.597656 133.070312 339.195312 137.820312 C 317.414062 148.835938 303.609375 143.496094 296.945312 145.292969 C 277.476562 150.539062 291.320312 173.695312 309.929688 191.070312 C 349.191406 227.722656 345.324219 286.085938 324.691406 318.691406 C 304.011719 351.367188 252.707031 374.285156 196.628906 372.441406 C 128.023438 370.191406 57.519531 367.578125 30.964844 306.714844 C 11.363281 261.785156 30.257812 205.144531 32.613281 195.164062 C 39.265625 166.96875 42.445312 141.6875 42.714844 139.46875 Z M 42.714844 139.46875 C 42.722656 139.355469 42.734375 139.3125 42.734375 139.3125 C 42.734375 139.3125 42.730469 139.363281 42.714844 139.46875 Z M 127.804688 259.4375 C 108.746094 255.976562 87.214844 209.207031 71.339844 246.167969 C 56.367188 281.027344 89.539062 323.003906 117.960938 331.449219 C 146.382812 339.894531 193.246094 303.679688 192.015625 270.851562 C 190.71875 236.398438 148.484375 263.195312 127.804688 259.4375 Z M 127.804688 259.4375 " fill-opacity="1" fill-rule="evenodd"/><g clip-path="url(#a0cf78b638)"><path stroke-linecap="round" transform="matrix(0.817848, 0, 0, 0.818507, 20.113639, 0.0618028)" fill="none" stroke-linejoin="round" d="M 27.634959 170.31851 C 27.582421 171.435253 28.189005 178.145257 43.243752 208.464358 C 57.5343 237.232427 82.318274 241.107621 131.403821 237.542633 C 171.920771 234.602831 200.888742 212.821566 197.254014 195.889066 C 193.767349 179.63902 169.284279 161.203212 175.679681 107.265469 C 181.49238 58.267168 231.877068 19.515224 294.65613 32.91137 C 350.791426 44.890111 345.647402 125.577195 353.790912 126.860972 C 359.173749 127.710461 395.530583 137.532074 404.447846 146.318075 C 409.01872 150.818455 401.644186 162.501307 390.147746 168.304554 C 363.515362 181.762741 346.636086 175.238861 338.487799 177.434168 C 314.682957 183.843511 331.609996 212.134339 354.364063 233.362005 C 402.370176 278.141499 397.641686 349.446031 372.413521 389.281311 C 347.12804 429.202495 284.39674 457.202206 215.82886 454.94963 C 131.943537 452.200724 45.736956 449.007983 13.267992 374.649111 C -10.699243 319.756887 12.40349 250.556987 15.28357 238.363487 C 23.417528 203.916254 27.305398 173.029237 27.634959 170.31851 Z M 27.634959 170.31851 C 27.644512 170.18011 27.658841 170.127613 27.658841 170.127613 C 27.658841 170.127613 27.654064 170.189655 27.634959 170.31851 Z M 131.676067 316.888671 C 108.372731 312.660318 82.046028 255.52029 62.635338 300.676804 C 44.327962 343.265764 84.887898 394.550048 119.639911 404.867992 C 154.391924 415.185936 211.692625 370.940951 210.188105 330.833644 C 208.60239 288.741015 156.961548 321.479726 131.676067 316.888671 Z M 131.676067 316.888671 " stroke="#f37b20" stroke-width="5" stroke-opacity="1" stroke-miterlimit="1.5"/></g></svg>