<svg xmlns="http://www.w3.org/2000/svg" xmlns:xlink="http://www.w3.org/1999/xlink" width="500" zoomAndPan="magnify" viewBox="0 0 375 374.999991" height="500" preserveAspectRatio="xMidYMid meet" version="1.0"><defs><clipPath id="59b56b1b2b"><path d="M 204 51.53125 L 240 51.53125 L 240 94 L 204 94 Z M 204 51.53125 " clip-rule="nonzero"/></clipPath><clipPath id="2010991c82"><path d="M 66.117188 68 L 309 68 L 309 323.78125 L 66.117188 323.78125 Z M 66.117188 68 " clip-rule="nonzero"/></clipPath></defs><rect x="-37.5" width="450" fill="#ffffff" y="-37.499999" height="449.999989" fill-opacity="1"/><rect x="-37.5" width="450" fill="#2a2524" y="-37.499999" height="449.999989" fill-opacity="1"/><path stroke-linecap="round" transform="matrix(0.594132, 0, 0, 0.594221, 66.117591, 51.580331)" fill-opacity="1" fill="#f37b20" fill-rule="evenodd" stroke-linejoin="round" d="M 290.16793 10.106691 C 290.16793 10.106691 242.987753 35.816565 250.805093 59.488583 C 258.615858 83.1606 292.14692 67.935831 285.427558 62.216682 C 264.967036 44.796286 290.16793 10.106691 290.16793 10.106691 Z M 290.16793 10.106691 " stroke="#f37b20" stroke-width="5" stroke-opacity="1" stroke-miterlimit="1.5"/><path fill="#f37b20" d="M 216.324219 53.066406 C 216.324219 53.066406 196.347656 83.84375 212.3125 90.378906 C 228.277344 96.914062 241.976562 77.320312 236.761719 76.785156 C 213.640625 74.410156 216.324219 53.066406 216.324219 53.066406 Z M 216.324219 53.066406 " fill-opacity="1" fill-rule="evenodd"/><g clip-path="url(#59b56b1b2b)"><path stroke-linecap="round" transform="matrix(0.594132, 0, 0, 0.594221, 66.117591, 51.580331)" fill="none" stroke-linejoin="round" d="M 252.816957 2.50088 C 252.816957 2.50088 219.193848 54.295332 246.064721 65.29319 C 272.935594 76.291047 295.99313 43.317196 287.215882 42.416595 C 248.300125 38.419764 252.816957 2.50088 252.816957 2.50088 Z M 252.816957 2.50088 " stroke="#f37b20" stroke-width="5" stroke-opacity="1" stroke-miterlimit="1.5"/></g><path fill="#f37b20" d="M 82.539062 152.789062 C 82.507812 153.453125 82.863281 157.4375 91.8125 175.453125 C 100.300781 192.546875 115.023438 194.851562 144.1875 192.734375 C 168.261719 190.984375 185.472656 178.042969 183.3125 167.980469 C 181.242188 158.328125 166.695312 147.371094 170.496094 115.320312 C 173.949219 86.203125 203.882812 63.175781 241.183594 71.136719 C 274.535156 78.253906 271.476562 126.203125 276.316406 126.964844 C 279.511719 127.46875 301.117188 133.304688 306.414062 138.523438 C 309.128906 141.199219 304.746094 148.140625 297.917969 151.589844 C 282.09375 159.585938 272.066406 155.710938 267.222656 157.015625 C 253.082031 160.824219 263.136719 177.636719 276.65625 190.25 C 305.175781 216.855469 302.371094 259.226562 287.378906 282.898438 C 272.359375 306.621094 235.089844 323.257812 194.347656 321.921875 C 144.507812 320.285156 93.292969 318.390625 74 274.203125 C 59.761719 241.585938 73.488281 200.464844 75.199219 193.21875 C 80.03125 172.75 82.339844 154.398438 82.539062 152.789062 Z M 82.539062 152.789062 C 82.542969 152.703125 82.550781 152.671875 82.550781 152.671875 C 82.550781 152.671875 82.546875 152.710938 82.539062 152.789062 Z M 144.351562 239.882812 C 130.503906 237.371094 114.863281 203.417969 103.332031 230.25 C 92.453125 255.554688 116.550781 286.03125 137.199219 292.160156 C 157.847656 298.292969 191.890625 272 190.996094 248.171875 C 190.054688 223.15625 159.371094 242.609375 144.351562 239.882812 Z M 144.351562 239.882812 " fill-opacity="1" fill-rule="evenodd"/><g clip-path="url(#2010991c82)"><path stroke-linecap="round" transform="matrix(0.594132, 0, 0, 0.594221, 66.117591, 51.580331)" fill="none" stroke-linejoin="round" d="M 27.639436 170.321742 C 27.586839 171.439277 28.185138 178.144486 43.247817 208.462548 C 57.53468 237.229209 82.314792 241.107712 131.401638 237.544748 C 171.921625 234.599715 200.889833 212.820934 197.254014 195.886994 C 193.769413 179.643297 169.285163 161.203973 175.682364 107.266483 C 181.494415 58.265868 231.87648 19.513705 294.658463 32.910975 C 350.793406 44.888319 345.645402 125.580907 353.791477 126.862785 C 359.169597 127.710797 395.534363 137.531956 404.44968 146.314465 C 409.019109 150.817472 401.642276 162.498998 390.149668 168.303606 C 363.515485 181.76004 346.638184 175.238895 338.485534 177.434522 C 314.685054 183.843913 331.608378 212.137266 354.363478 233.363853 C 402.365495 278.137557 397.644847 349.442853 372.411079 389.279682 C 347.131288 429.201971 284.401902 457.199505 215.827593 454.951288 C 131.940764 452.196893 45.739635 449.008632 13.267103 374.64655 C -10.697745 319.755869 12.405815 250.554169 15.285541 238.359891 C 23.418467 203.913524 27.304126 173.030121 27.639436 170.321742 Z M 27.639436 170.321742 C 27.646011 170.17712 27.659161 170.12453 27.659161 170.12453 C 27.659161 170.12453 27.652586 170.190267 27.639436 170.321742 Z M 131.677776 316.889721 C 108.3704 312.66281 82.045229 255.523912 62.636661 300.678892 C 44.326071 343.263543 84.885507 394.551817 119.639467 404.866006 C 154.393427 415.186769 211.692095 370.938964 210.186485 330.839185 C 208.601977 288.740991 156.957567 321.478187 131.677776 316.889721 Z M 131.677776 316.889721 " stroke="#f37b20" stroke-width="5" stroke-opacity="1" stroke-miterlimit="1.5"/></g></svg>